<svg width="174" height="77" viewBox="0 0 174 77" fill="none" xmlns="http://www.w3.org/2000/svg">
<g clip-path="url(#clip0)">
<path d="M118.998 18.0993C118.998 23.6982 117.186 28.5874 113.561 32.767C109.936 36.9466 104.855 39.0364 98.3169 39.0364C95.3697 39.0364 91.3062 38.9183 86.1265 38.682C86.3846 32.7287 86.5136 26.0155 86.5136 18.5424C86.5136 11.3582 86.3846 5.23647 86.1265 0.177211H91.3555C92.212 0.177211 93.4872 0.147677 95.181 0.0886073C96.8748 0.0295374 97.9798 0 98.496 0C105.687 0 110.902 1.77449 114.139 5.32348C117.377 8.87246 118.996 13.1311 118.998 18.0993ZM110.841 19.3709C110.841 15.5841 109.726 12.3911 107.495 9.79203C105.264 7.19296 101.857 5.89662 97.274 5.903C96.0947 5.92685 94.9177 6.0164 93.7485 6.17121C93.9469 10.1161 94.0461 14.2366 94.0461 18.5328C94.0461 23.2456 94.1462 27.9185 94.3462 32.5515C95.6248 32.8058 96.9257 32.9341 98.2298 32.9347C102.513 32.9347 105.686 31.6192 107.749 28.9882C109.812 26.3572 110.843 23.1514 110.841 19.3709Z" fill="#4D4A4A"/>
<path d="M174 0.184387C174 2.01875 172.008 8.52522 168.023 19.7038C164.039 30.8824 162.047 37.2108 162.047 38.6892H154.159C154.159 37.1326 152.954 32.7463 150.544 25.5302C147.974 17.7952 146.529 12.6992 146.21 10.2422H145.702C145.379 12.7264 144.044 17.8623 141.697 25.6499C139.505 32.9251 138.41 37.2723 138.411 38.6916H130.341C130.341 36.8381 128.379 30.243 124.454 18.9064C120.53 7.56972 118.567 1.32907 118.567 0.184387H128.04C128.04 1.42645 129.176 6.37555 131.447 15.0317C133.719 23.6878 134.854 28.8245 134.854 30.4417H135.338C135.338 28.8261 136.553 23.7836 138.982 15.3143C141.412 6.84492 142.625 1.80163 142.624 0.184387H151.141C151.141 1.66113 152.356 6.79223 154.785 15.5777C157.215 24.3631 158.43 29.317 158.432 30.4394H158.916C158.916 29.0185 160.017 24.1979 162.219 15.9776C164.42 7.75731 165.519 2.4929 165.514 0.184387H174Z" fill="#4D4A4A"/>
<path d="M108.978 61.2643H105.368C105.56 58.9909 105.655 56.7805 105.653 54.6333C105.653 53.024 105.444 51.9719 105.027 51.477C104.609 50.9821 103.942 50.7355 103.026 50.737C102.187 50.7699 101.376 51.0465 100.695 51.5321C100.66 52.6496 100.641 53.6562 100.64 54.5518C100.64 56.0541 100.667 58.2892 100.722 61.2571H97.0732C97.2716 58.7953 97.3708 56.4006 97.3708 54.0729C97.3708 52.8676 97.2006 52.0086 96.8602 51.4962C96.5191 50.9861 95.8149 50.7299 94.743 50.7299C94.2859 50.717 93.831 50.7976 93.4068 50.9665C92.9826 51.1355 92.5981 51.3891 92.2773 51.7117C92.3225 55.2735 92.3451 58.4553 92.3451 61.2571H88.6817C88.843 58.4537 88.9236 56.2433 88.9236 54.6261C88.9301 52.5852 88.7069 50.5499 88.2582 48.5578L91.745 48.1795L91.987 49.6163H92.2047C93.2792 48.5972 94.709 48.0269 96.1972 48.0238C98.0475 48.0238 99.3501 48.5547 100.105 49.6163H100.323C101.668 48.5563 102.999 48.0254 104.315 48.0238C105.859 48.0238 107.024 48.3543 107.809 49.0152C108.595 49.6762 108.988 50.8735 108.988 52.6073C108.988 52.7774 108.988 53.103 108.961 53.5844C108.935 54.0657 108.932 54.3914 108.932 54.5614C108.926 56.0573 108.941 58.2916 108.978 61.2643Z" fill="#4D4A4A"/>
<path d="M123.136 53.4862C123.136 53.946 123.109 54.5423 123.053 55.2798L114.28 55.4283C114.388 56.4062 114.859 57.3093 115.603 57.9619C116.356 58.6372 117.346 58.9741 118.572 58.9725C120.044 58.959 121.509 58.7553 122.928 58.3666L122.652 60.9817C121.398 61.4319 119.846 61.657 117.994 61.657C115.65 61.657 113.854 61.0048 112.605 59.7005C111.996 59.077 111.517 58.3407 111.195 57.5336C110.874 56.7265 110.716 55.8646 110.732 54.9973C110.698 53.1781 111.33 51.4081 112.511 50.0138C113.696 48.6073 115.343 47.9041 117.449 47.9041C119.374 47.9041 120.804 48.4213 121.74 49.4559C122.675 50.4904 123.141 51.8338 123.136 53.4862ZM119.947 53.364C119.947 51.2982 119.059 50.2645 117.285 50.2629C115.586 50.2629 114.578 51.3325 114.26 53.4718L119.947 53.364Z" fill="#4D4A4A"/>
<path d="M137.376 61.2499L134.148 61.3577C134.082 61.0337 134.049 60.7039 134.051 60.3734H133.848C132.849 61.2291 131.573 61.6562 130.02 61.6546C128.274 61.6546 126.889 61.0296 125.865 59.7795C124.835 58.5239 124.29 56.9469 124.326 55.3301C124.287 53.4791 124.876 51.6685 126.001 50.1886C127.119 48.7279 128.671 47.9975 130.659 47.9975C131.949 47.9975 132.917 48.2369 133.562 48.7159H133.751C133.751 46.5942 133.647 44.4597 133.439 42.3124L137.293 42.2046C137.148 44.2976 137.076 47.3086 137.076 51.2375C137.076 55.2192 137.176 58.5566 137.376 61.2499ZM133.957 58.1894C133.957 55.3158 133.888 52.9426 133.751 51.0699C133.088 50.6278 132.302 50.4017 131.503 50.4233C130.304 50.4233 129.417 50.864 128.841 51.7452C128.236 52.7153 127.933 53.8407 127.97 54.9805C127.943 56.0207 128.238 57.0443 128.815 57.914C129.063 58.3034 129.41 58.6219 129.821 58.8382C130.231 59.0544 130.692 59.161 131.157 59.1473C132.488 59.1489 133.421 58.8304 133.957 58.1918V58.1894Z" fill="#4D4A4A"/>
<path d="M143.422 61.2643H139.757C139.884 59.406 139.948 57.2715 139.948 54.8608C139.969 52.7579 139.815 50.657 139.486 48.5794L143.408 48.1891C143.288 49.9324 143.23 52.1563 143.231 54.8608C143.231 57.1725 143.295 59.307 143.422 61.2643ZM144.049 44.3862C144.054 44.9818 143.827 45.5565 143.415 45.9907C143.188 46.2242 142.913 46.4065 142.609 46.5251C142.305 46.6437 141.978 46.6959 141.651 46.678C141.374 46.6933 141.096 46.6481 140.838 46.5455C140.58 46.4428 140.348 46.2853 140.158 46.0841C139.8 45.6909 139.607 45.1766 139.621 44.6473C139.615 44.3372 139.675 44.0295 139.797 43.7436C139.918 43.4578 140.098 43.2001 140.326 42.9872C140.554 42.7742 140.824 42.6106 141.119 42.5067C141.414 42.4029 141.728 42.3612 142.041 42.3842C142.318 42.3672 142.595 42.4109 142.854 42.5123C143.112 42.6137 143.344 42.7704 143.534 42.971C143.88 43.3614 144.064 43.867 144.049 44.3862Z" fill="#4D4A4A"/>
<path d="M158.947 54.5638C158.947 56.8292 158.243 58.6005 156.835 59.8777C155.491 61.13 153.708 61.8168 151.862 61.7935C150.133 61.8312 148.455 61.2077 147.178 60.0525C145.879 58.8887 145.23 57.2507 145.23 55.1386C145.23 52.8636 145.938 51.0835 147.354 49.7983C148.704 48.5456 150.491 47.859 152.341 47.8825C154.064 47.85 155.731 48.4811 156.992 49.6427C158.287 50.8033 158.939 52.4437 158.947 54.5638ZM155.39 54.9685C155.39 53.6658 155.081 52.5714 154.463 51.6854C153.846 50.7993 153.039 50.3571 152.044 50.3587C151.578 50.3542 151.12 50.4654 150.709 50.6821C150.298 50.8989 149.95 51.2142 149.694 51.5992C149.088 52.4261 148.784 53.4598 148.784 54.7003C148.744 55.863 149.068 57.0096 149.711 57.9835C150.331 58.8663 151.137 59.3086 152.131 59.3102C152.596 59.3149 153.055 59.2038 153.466 58.987C153.876 58.7703 154.225 58.4548 154.48 58.0697C155.08 57.2427 155.38 56.209 155.378 54.9685H155.39Z" fill="#4D4A4A"/>
<path d="M169.952 57.5835C169.952 60.28 167.935 61.6282 163.903 61.6282C162.601 61.6483 161.304 61.487 160.048 61.1493L160.513 58.4935C161.598 58.8896 162.744 59.0954 163.9 59.1018C164.992 59.1018 165.746 59.0108 166.17 58.8312C166.359 58.767 166.522 58.6449 166.636 58.4825C166.75 58.3202 166.809 58.126 166.804 57.9284C166.804 57.2722 166.041 56.6472 164.515 56.0533C163.179 55.5344 162.211 55.0228 161.611 54.5183C161.218 54.2114 160.901 53.8197 160.684 53.3732C160.466 52.9267 160.355 52.4371 160.358 51.9416C160.34 51.39 160.453 50.842 160.687 50.341C160.921 49.8401 161.27 49.4001 161.706 49.0559C162.606 48.3279 163.914 47.9647 165.63 47.9663C167.243 47.9663 168.506 48.1052 169.417 48.383L168.953 51.0531C167.888 50.6552 166.758 50.4586 165.621 50.4736C164.169 50.4736 163.443 50.8424 163.443 51.58C163.439 51.7575 163.479 51.9332 163.56 52.0918C163.64 52.2505 163.759 52.3871 163.905 52.49C164.5 52.8529 165.136 53.1446 165.8 53.3592C167.116 53.8382 168.074 54.3275 168.674 54.8272C169.084 55.1608 169.412 55.5823 169.634 56.0598C169.855 56.5373 169.964 57.0583 169.952 57.5835Z" fill="#4D4A4A"/>
<path d="M77.556 0H0V61.7839H61.8255L77.0696 77.0048L74.7588 61.8318L77.556 61.7839V0ZM68.2668 51.1513H9.2892V42.1232H68.2668V51.1513ZM68.2668 35.2959H9.2892V26.263H68.2668V35.2959ZM68.2668 19.438H9.2892V10.4075H68.2668V19.438Z" fill="#CA262B"/>
</g>
<defs>
<clipPath id="clip0">
<rect width="174" height="77" fill="white"/>
</clipPath>
</defs>
</svg>
