<svg width="115" height="51" viewBox="0 0 115 51" fill="none" xmlns="http://www.w3.org/2000/svg">
<g clip-path="url(#clip0)">
<path d="M78.6481 11.9879C78.6481 15.6962 77.4503 18.9345 75.0546 21.7028C72.659 24.4711 69.3006 25.8553 64.9795 25.8553C63.0317 25.8553 60.3461 25.7771 56.9227 25.6206C57.0933 21.6775 57.1785 17.2311 57.1785 12.2813C57.1785 7.52296 57.0933 3.46831 56.9227 0.117374H60.3786C60.9447 0.117374 61.7875 0.0978122 62.907 0.058688C64.0264 0.0195638 64.7567 0 65.0979 0C69.8508 0 73.2971 1.17531 75.4369 3.52594C77.5766 5.87657 78.647 8.69721 78.6481 11.9879ZM73.2571 12.8301C73.2571 10.3219 72.5199 8.2071 71.0454 6.48563C69.5709 4.76417 67.3192 3.90555 64.2903 3.90978C63.5108 3.92558 62.7329 3.98489 61.9602 4.08742C62.0914 6.70029 62.1569 9.42947 62.1569 12.275C62.1569 15.3964 62.223 18.4915 62.3552 21.5601C63.2003 21.7285 64.06 21.8135 64.922 21.8139C67.7526 21.8139 69.8497 20.9426 71.2133 19.2C72.5769 17.4573 73.2582 15.3341 73.2571 12.8301Z" fill="white"/>
<path d="M115 0.122162C115 1.33713 113.683 5.64661 111.05 13.0506C108.417 20.4546 107.1 24.6462 107.1 25.6253H101.886C101.886 24.5944 101.09 21.6891 99.4971 16.9096C97.7988 11.7865 96.844 8.41121 96.6329 6.78385H96.2971C96.0839 8.42919 95.2016 11.8309 93.6504 16.9889C92.2015 21.8076 91.4776 24.6869 91.4786 25.6269H86.1452C86.1452 24.3993 84.8483 20.0311 82.2543 12.5224C79.6604 5.01375 78.3634 0.880326 78.3634 0.122162H84.6244C84.6244 0.944828 85.3749 4.2228 86.8761 9.95609C88.3772 15.6894 89.1278 19.0916 89.1278 20.1628H89.4476C89.4476 19.0927 90.2504 15.7528 91.856 10.1432C93.4617 4.53368 94.2639 1.19332 94.2629 0.122162H99.8921C99.8921 1.10027 100.695 4.49879 102.301 10.3177C103.906 16.1367 104.71 19.4178 104.711 20.1612H105.03C105.03 19.2201 105.758 16.0272 107.213 10.5826C108.669 5.13799 109.395 1.65118 109.392 0.122162H115Z" fill="white"/>
<path d="M72.0257 40.5776H69.6397C69.7665 39.0719 69.8294 37.6079 69.8284 36.1857C69.8284 35.1198 69.6903 34.423 69.4142 34.0952C69.138 33.7674 68.6972 33.604 68.0916 33.6051C67.5373 33.6268 67.0017 33.81 66.5516 34.1317C66.5281 34.8718 66.5159 35.5385 66.5148 36.1317C66.5148 37.1268 66.5329 38.6071 66.5692 40.5729H64.1575C64.2887 38.9423 64.3542 37.3562 64.3542 35.8145C64.3542 35.0162 64.2418 34.4473 64.0168 34.1079C63.7913 33.77 63.3259 33.6003 62.6175 33.6003C62.3154 33.5918 62.0147 33.6452 61.7344 33.7571C61.454 33.8689 61.1999 34.037 60.9879 34.2506C61.0177 36.6097 61.0327 38.7171 61.0327 40.5729H58.6114C58.7181 38.7161 58.7714 37.2521 58.7714 36.1809C58.7756 34.8291 58.6281 33.4811 58.3316 32.1617L60.636 31.9111L60.796 32.8628H60.9399C61.65 32.1878 62.595 31.81 63.5786 31.808C64.8015 31.808 65.6624 32.1596 66.1614 32.8628H66.3053C67.1945 32.1606 68.074 31.809 68.944 31.808C69.9643 31.808 70.7341 32.0269 71.2533 32.4646C71.7725 32.9024 72.0321 33.6955 72.0321 34.8438C72.0321 34.9564 72.0321 35.1721 72.0145 35.491C71.9969 35.8098 71.9953 36.0255 71.9953 36.1381C71.991 37.1289 72.0012 38.6087 72.0257 40.5776Z" fill="white"/>
<path d="M81.3828 35.4259C81.3828 35.7305 81.3652 36.1254 81.3284 36.6139L75.5296 36.7123C75.601 37.36 75.9128 37.9582 76.4044 38.3904C76.9023 38.8377 77.5564 39.0608 78.3666 39.0597C79.3397 39.0508 80.3074 38.9159 81.2452 38.6584L81.0629 40.3905C80.2345 40.6887 79.2084 40.8378 77.9844 40.8378C76.4353 40.8378 75.2481 40.4058 74.4229 39.5419C74.0201 39.129 73.7034 38.6412 73.491 38.1067C73.2786 37.5721 73.1747 37.0012 73.1851 36.4268C73.1625 35.2219 73.58 34.0496 74.3606 33.1261C75.1442 32.1945 76.2322 31.7287 77.6246 31.7287C78.8965 31.7287 79.8416 32.0713 80.46 32.7565C81.0784 33.4417 81.386 34.3315 81.3828 35.4259ZM79.275 35.345C79.275 33.9768 78.6886 33.2921 77.5158 33.291C76.3932 33.291 75.7268 33.9995 75.5168 35.4164L79.275 35.345Z" fill="white"/>
<path d="M90.7942 40.5681L88.6609 40.6395C88.6173 40.4249 88.5958 40.2065 88.5969 39.9876H88.4626C87.8026 40.5544 86.9593 40.8372 85.9326 40.8362C84.779 40.8362 83.8637 40.4222 83.1867 39.5942C82.5061 38.7626 82.1456 37.7181 82.1696 36.6472C82.1436 35.4212 82.5333 34.222 83.2763 33.2418C84.0151 32.2743 85.0413 31.7906 86.3548 31.7906C87.2077 31.7906 87.8474 31.9492 88.2739 32.2664H88.3986C88.3986 30.8611 88.3298 29.4473 88.1923 28.0251L90.7399 27.9537C90.6439 29.34 90.5959 31.3343 90.5959 33.9366C90.5959 36.5738 90.662 38.7843 90.7942 40.5681ZM88.5345 38.5411C88.5345 36.6377 88.4892 35.0659 88.3986 33.8255C87.9605 33.5327 87.441 33.383 86.9129 33.3973C86.1208 33.3973 85.5344 33.6891 85.1538 34.2728C84.7535 34.9154 84.5532 35.6608 84.578 36.4157C84.56 37.1046 84.7548 37.7826 85.1362 38.3587C85.3004 38.6165 85.5295 38.8275 85.801 38.9707C86.0724 39.114 86.3769 39.1846 86.6842 39.1755C87.5638 39.1766 88.1806 38.9656 88.5345 38.5427V38.5411Z" fill="white"/>
<path d="M94.7906 40.5776H92.3678C92.452 39.3468 92.4941 37.9331 92.4941 36.3364C92.5084 34.9436 92.4062 33.552 92.1887 32.176L94.781 31.9174C94.7021 33.0721 94.6632 34.5451 94.6643 36.3364C94.6643 37.8675 94.7064 39.2812 94.7906 40.5776ZM95.2048 29.3987C95.2082 29.7932 95.0581 30.1738 94.7858 30.4614C94.636 30.616 94.4543 30.7368 94.2531 30.8153C94.0519 30.8939 93.8359 30.9284 93.62 30.9166C93.4365 30.9268 93.253 30.8968 93.0825 30.8288C92.912 30.7608 92.7586 30.6565 92.6333 30.5232C92.3964 30.2628 92.2693 29.9222 92.2782 29.5716C92.2746 29.3662 92.3141 29.1624 92.3943 28.973C92.4746 28.7837 92.5938 28.6131 92.7443 28.472C92.8948 28.331 93.0733 28.2226 93.2684 28.1538C93.4635 28.0851 93.671 28.0574 93.8775 28.0727C94.0606 28.0614 94.2441 28.0903 94.4147 28.1575C94.5852 28.2247 94.7387 28.3284 94.8642 28.4613C95.093 28.7199 95.2147 29.0548 95.2048 29.3987Z" fill="white"/>
<path d="M105.051 36.1397C105.051 37.6402 104.586 38.8133 103.655 39.6593C102.767 40.4887 101.589 40.9436 100.369 40.9282C99.2256 40.9531 98.1167 40.5402 97.2727 39.7751C96.4144 39.0042 95.9853 37.9193 95.9853 36.5204C95.9853 35.0135 96.4533 33.8345 97.3894 32.9833C98.2813 32.1536 99.4626 31.6988 100.685 31.7144C101.824 31.6929 102.926 32.1109 103.759 32.8802C104.615 33.649 105.046 34.7354 105.051 36.1397ZM102.7 36.4077C102.7 35.5449 102.496 34.82 102.088 34.2332C101.68 33.6463 101.147 33.3534 100.489 33.3545C100.181 33.3515 99.8779 33.4251 99.6065 33.5687C99.3352 33.7122 99.1046 33.9211 98.9359 34.1761C98.535 34.7238 98.3345 35.4085 98.3345 36.2301C98.3081 37.0002 98.522 37.7596 98.9471 38.4047C99.3565 38.9894 99.8895 39.2823 100.546 39.2834C100.854 39.2865 101.157 39.2129 101.429 39.0693C101.7 38.9258 101.93 38.7168 102.099 38.4618C102.496 37.914 102.693 37.2293 102.692 36.4077H102.7Z" fill="white"/>
<path d="M112.325 38.1398C112.325 39.9258 110.992 40.8187 108.326 40.8187C107.466 40.832 106.609 40.7252 105.779 40.5015L106.086 38.7425C106.803 39.0048 107.561 39.1412 108.325 39.1454C109.046 39.1454 109.545 39.0851 109.825 38.9661C109.95 38.9237 110.058 38.8428 110.133 38.7352C110.209 38.6277 110.247 38.4991 110.244 38.3682C110.244 37.9336 109.74 37.5196 108.731 37.1262C107.848 36.7826 107.209 36.4437 106.812 36.1096C106.552 35.9063 106.343 35.6469 106.199 35.3511C106.055 35.0554 105.982 34.7311 105.984 34.4029C105.972 34.0376 106.047 33.6746 106.201 33.3428C106.356 33.011 106.586 32.7196 106.874 32.4916C107.469 32.0094 108.334 31.7689 109.468 31.7699C110.534 31.7699 111.369 31.8619 111.971 32.0459L111.664 33.8144C110.961 33.5509 110.214 33.4206 109.462 33.4306C108.502 33.4306 108.023 33.6749 108.023 34.1634C108.02 34.2809 108.047 34.3973 108.1 34.5024C108.153 34.6075 108.231 34.698 108.328 34.7661C108.721 35.0065 109.141 35.1997 109.58 35.3419C110.45 35.6591 111.084 35.9832 111.48 36.3142C111.751 36.5351 111.968 36.8143 112.114 37.1306C112.26 37.4468 112.332 37.7919 112.325 38.1398Z" fill="white"/>
<path d="M51.2582 0H0V40.9218H40.8617L50.9368 51.0032L49.4095 40.9536L51.2582 40.9218V0ZM45.1188 33.8795H6.13941V27.8998H45.1188V33.8795ZM45.1188 23.3778H6.13941V17.3949H45.1188V23.3778ZM45.1188 12.8745H6.13941V6.89327H45.1188V12.8745Z" fill="white"/>
</g>
<defs>
<clipPath id="clip0">
<rect width="115" height="51" fill="white"/>
</clipPath>
</defs>
</svg>
